<svg width="21" height="32" viewBox="0 0 21 32" fill="none" xmlns="http://www.w3.org/2000/svg">
<path d="M11.4773 32V29.5682C17.0409 29.1261 20.228 26.2706 20.228 21.6834C20.228 17.7962 17.9436 15.4381 13.3011 14.3328L11.4773 13.9459V6.30052C13.7248 6.59528 15.2907 8.14277 15.346 10.0956H19.749C19.6569 5.95049 16.4514 2.98446 11.4773 2.54231V0H8.93495V2.54231C3.72136 3.00288 0.589522 5.83995 0.589522 10.1877C0.589522 13.8722 2.91077 16.3777 7.16638 17.4093L8.93495 17.8515V25.9021C6.33736 25.6074 4.66091 24.1151 4.49511 22.015H0C0.0184226 26.3627 3.44502 29.255 8.93495 29.6051V32H11.4773ZM15.7513 22.1623C15.7513 24.3731 14.1854 25.7732 11.4773 25.939V18.3305C14.4064 18.92 15.7513 20.1359 15.7513 22.1623ZM5.12147 9.81923C5.12147 7.86644 6.72424 6.41105 8.93495 6.2821V13.4116C6.4479 12.8958 5.12147 11.6615 5.12147 9.81923Z" fill="white"/>
</svg>
